<svg xmlns="http://www.w3.org/2000/svg" viewBox="0 0 296.01 323.34"><defs><style>.cls-1{fill:#14a800;}</style></defs><g id="Layer_2" data-name="Layer 2"><g id="Layer_1-2" data-name="Layer 1"><path class="cls-1" d="M230.2,95.67c-16.44,13.23-36.24,37.38-43.61,52.76-9.28,19.36-4,41.52,13.16,54.83a48,48,0,0,0,60.28-.61c17.15-14.07,22-35.68,12.09-54.92C261.82,127.78,246.58,111.76,230.2,95.67Z"/><path class="cls-1" d="M296,64.68c-16.2-3-32.3-6.64-48.61-8.75-77.39-10-137,50.64-122.68,127.39,10.32,55.34,56.85,86.39,103.51,75.06v65c-59.25-1.7-105.61-27.17-137.4-76.95S52.59,122.15,105.59,55.66C69.22,52.1,34.43,56,0,64.68Q0,32.34.08,0H295.92Z"/><path class="cls-1" d="M230.2,95.67c16.38,16.09,31.62,32.11,41.92,52.06,9.93,19.24,5.06,40.85-12.09,54.92a48,48,0,0,1-60.28.61c-17.12-13.31-22.44-35.47-13.16-54.83C194,133.05,213.76,108.9,230.2,95.67Z"/></g></g></svg>